<svg xmlns="http://www.w3.org/2000/svg" width="100" height="100" viewBox="0 0 100 100">
    <g fill="none" stroke="currentColor" stroke-width="1">
        <path d="M10 10h20v20H10zM40 10h20v20H40zM70 10h20v20H70z"/>
        <path d="M20 30v10M50 30v10M80 30v10"/>
        <path d="M10 50h20v20H10zM40 50h20v20H40zM70 50h20v20H70z"/>
        <path d="M20 70v10M50 70v10M80 70v10"/>
        <circle cx="20" cy="20" r="3"/>
        <circle cx="50" cy="20" r="3"/>
        <circle cx="80" cy="20" r="3"/>
        <circle cx="20" cy="60" r="3"/>
        <circle cx="50" cy="60" r="3"/>
        <circle cx="80" cy="60" r="3"/>
        <path d="M15 40h10M45 40h10M75 40h10"/>
        <path d="M15 80h10M45 80h10M75 80h10"/>
    </g>
</svg> 